<svg width="34" height="16" viewBox="0 0 34 16" fill="none" xmlns="http://www.w3.org/2000/svg">
<path d="M32 9.0125C32.5592 9.0125 33.0125 8.55919 33.0125 8C33.0125 7.44081 32.5592 6.9875 32 6.9875V9.0125ZM1.28405 7.28405C0.888649 7.67946 0.888649 8.32054 1.28405 8.71595L7.72757 15.1595C8.12297 15.5549 8.76405 15.5549 9.15946 15.1595C9.55486 14.7641 9.55486 14.123 9.15946 13.7276L3.43189 8L9.15946 2.27243C9.55486 1.87703 9.55486 1.23595 9.15946 0.840543C8.76405 0.445138 8.12297 0.445138 7.72757 0.840543L1.28405 7.28405ZM32 6.9875L2 6.9875V9.0125L32 9.0125V6.9875Z" fill="white"/>
</svg>
