<svg width="34" height="16" viewBox="0 0 34 16" fill="none" xmlns="http://www.w3.org/2000/svg">
<path d="M2 6.9875C1.44081 6.9875 0.9875 7.44081 0.9875 8C0.9875 8.55919 1.44081 9.0125 2 9.0125V6.9875ZM32.7159 8.71595C33.1114 8.32054 33.1114 7.67946 32.7159 7.28405L26.2724 0.840543C25.877 0.445138 25.2359 0.445138 24.8405 0.840543C24.4451 1.23595 24.4451 1.87703 24.8405 2.27243L30.5681 8L24.8405 13.7276C24.4451 14.123 24.4451 14.7641 24.8405 15.1595C25.2359 15.5549 25.877 15.5549 26.2724 15.1595L32.7159 8.71595ZM2 9.0125H32V6.9875H2V9.0125Z" fill="white"/>
</svg>
